<?xml version="1.0" encoding="utf-8"?>
<!-- Generator: Adobe Illustrator 16.0.0, SVG Export Plug-In . SVG Version: 6.00 Build 0)  -->
<!DOCTYPE svg PUBLIC "-//W3C//DTD SVG 1.1//EN" "http://www.w3.org/Graphics/SVG/1.1/DTD/svg11.dtd">
<svg version="1.1" id="圖層_1" xmlns="http://www.w3.org/2000/svg" xmlns:xlink="http://www.w3.org/1999/xlink" x="0px" y="0px"
	 width="100px" height="100px" viewBox="0 0 100 100" enable-background="new 0 0 100 100" xml:space="preserve">
<g>
	<path fill-rule="evenodd" clip-rule="evenodd" d="M94.32,34.25c-0.16,5.773-0.1,11.562-0.535,17.314
		c-0.533,7.036-0.49,14.075-0.699,21.11c-0.072,2.379-0.371,4.754-0.633,7.121c-0.139,1.264-0.563,2.473-1.172,3.594
		c-1.139,2.094-2.301,4.174-3.482,6.244c-1.008,1.77-2.59,2.846-4.453,3.553c-1.357,0.514-2.756,0.906-4.168,1.242
		c-5.498,1.307-10.863,3.15-16.475,4c-1.096,0.166-2.16,0.566-3.219,0.918c-2.443,0.811-4.893,0.852-7.377,0.211
		c-4.342-1.119-8.716-1.814-13.245-1.656c-3.358,0.119-6.645-0.787-9.917-1.494c-1.876-0.404-3.486-1.482-5.085-2.508
		c-3.51-2.258-7.001-4.539-10.54-6.752c-3.246-2.029-5.912-4.703-6.876-8.607c-0.557-2.252-0.373-4.594-0.572-6.891
		c-0.492-5.66,0.299-11.328-0.043-16.984C5.35,46.704,6.004,38.796,7.026,30.931c0.746-5.742,2.309-11.3,5.343-16.345
		c1.285-2.137,2.836-4.009,4.805-5.54c0.905-0.704,1.738-1.58,2.653-2.166c1.231-0.789,1.912-1.659,2.401-3.011
		c0.46-1.269,2.096-1.763,3.439-1.332c2.202,0.708,4.373,0.692,6.581,0.011c2.974-0.917,6.045-1.175,9.146-1.332
		c4.174-0.211,8.338-0.316,12.51,0.016c2.816,0.225,5.627,0.761,8.465,0.414c5.033-0.617,9.979,0.145,14.881,1.056
		c4.748,0.882,8.471,3.601,11.768,7.071c2.756,2.903,4.211,6.304,4.547,10.195C93.971,24.718,94.404,29.472,94.32,34.25z
		 M47.797,75.796c-0.188-2.9-0.102-5.996,0.234-9.068c0.563-5.162,0.54-10.334,0.533-15.511c-0.001-0.495-0.123-0.732-0.663-0.785
		c-2.048-0.194-4.083-0.204-6.118,0.161c-3.821,0.69-7.643,1.151-11.545,0.608c-2.304-0.321-4.581-0.086-6.788,0.849
		c-1.872,0.793-3.865,1.035-5.911,0.713c-1.584-0.252-3.171-0.266-4.781-0.092c-0.731,0.08-0.888,0.273-0.808,0.904
		c0.223,1.781,0.19,3.574,0.125,5.355c-0.187,5.141-0.112,10.273,0.082,15.412c0.099,2.646,0.946,4.752,2.975,6.434
		c0.837,0.695,1.703,1.338,2.647,1.857c2.254,1.244,4.363,2.709,6.52,4.105c2.696,1.748,5.219,3.805,8.645,4.178
		c2.731,0.297,5.421,1.057,8.194,0.877c1.833-0.121,3.644-0.109,5.444,0.256c0.662,0.137,0.93-0.002,0.911-0.756
		C47.361,86.188,47.75,81.093,47.797,75.796z M59.201,50.727c-1.027,0-2.227,0.075-3.41-0.024c-0.955-0.08-1.104,0.299-1.08,1.127
		c0.053,1.862,0.012,3.728,0.016,5.591c0.025,6.672-0.943,13.297-0.777,19.986c0.119,4.904-0.357,9.818-0.23,14.736
		c0.039,1.527,0.268,1.742,1.811,1.713c0.293-0.006,0.588-0.086,0.879-0.148c2.076-0.443,4.049-1.283,6.15-1.613
		c6.049-0.947,11.813-3.021,17.742-4.438c1.27-0.303,2.174-0.994,2.76-2.205c0.633-1.305,1.424-2.531,2.131-3.801
		c0.678-1.213,1.098-2.488,1.277-3.893c0.602-4.713,0.439-9.449,0.574-14.172c0.098-3.465,0.027-6.934,0.447-10.383
		c0.232-1.909,0.096-2.097-1.813-2.563c-0.182-0.044-0.361-0.116-0.543-0.124c-3.055-0.138-6.117-0.037-9.133,0.385
		c-2.992,0.418-5.939,1.069-8.975,0.424C64.504,50.789,61.955,50.48,59.201,50.727z M11.931,46.362
		c1.994-0.33,3.873,0.012,5.737,0.193c1.378,0.134,2.675,0.103,3.938-0.428c3.042-1.279,6.198-1.457,9.429-1.075
		c1.624,0.191,3.239,0.318,4.896,0.134c3.212-0.357,6.37-1.206,9.644-1.056c0.951,0.043,2.215,0.515,2.786-0.115
		c0.594-0.652,0.253-1.917,0.23-2.914c-0.189-8.547,0.256-17.041,1.976-25.443c0.295-1.446,0.811-2.999,0.441-4.408
		c-0.375-1.425-0.479-2.648,0.439-3.948c-2.025-0.003-3.874-0.257-5.738-0.076c-3.145,0.304-6.355,0.001-9.445,0.759
		c-3.555,0.871-7.07,1.845-10.771,0.968c-0.395-0.094-0.402,0.212-0.429,0.476c-0.169,1.646-1.184,2.664-2.527,3.461
		c-2.303,1.366-3.992,3.288-5.264,5.646c-1.302,2.41-2.174,4.958-2.924,7.58c-1.542,5.384-1.79,10.928-2.184,16.457
		C12.075,43.827,12.009,45.084,11.931,46.362z M56.383,7.626c1.027,1.432,1.094,2.764,0.957,4.114
		c-0.143,1.407-0.34,2.809-0.539,4.209c-0.506,3.573-1.342,7.099-1.643,10.7c-0.463,5.531-0.389,11.08-0.453,16.625
		c-0.012,0.987,0.246,1.254,1.236,1.239c3.57-0.058,7.17-0.389,10.691,0.431c2.564,0.597,5.051,0.363,7.617-0.028
		c4.264-0.648,8.568-1.077,12.877-0.3c0.627,0.113,0.643-0.166,0.668-0.649c0.354-6.44,0.445-12.88-0.078-19.314
		c-0.172-2.108-0.107-4.258-0.748-6.306c-1.238-3.966-4.154-6.513-7.65-8.325c-4.316-2.237-9.156-2.178-13.852-2.361
		C62.553,7.546,59.619,8.281,56.383,7.626z"/>
</g>
</svg>
