<?xml version="1.0" encoding="utf-8"?>
<!-- Generator: Adobe Illustrator 16.0.0, SVG Export Plug-In . SVG Version: 6.00 Build 0)  -->
<!DOCTYPE svg PUBLIC "-//W3C//DTD SVG 1.1//EN" "http://www.w3.org/Graphics/SVG/1.1/DTD/svg11.dtd">
<svg version="1.1" id="圖層_1" xmlns="http://www.w3.org/2000/svg" xmlns:xlink="http://www.w3.org/1999/xlink" x="0px" y="0px"
	 width="100px" height="100px" viewBox="0 0 100 100" enable-background="new 0 0 100 100" xml:space="preserve">
<path fill-rule="evenodd" clip-rule="evenodd" d="M27.646,40.578c0.141-0.289,0.31-0.569,0.42-0.87
	c4.322-11.836,12.691-19.005,25.094-21.042c16.889-2.772,32.954,9.202,35.504,26.153c2.581,17.159-9.009,32.969-26.16,35.691
	c-12.921,2.048-26.055-4.465-32.232-15.994c-3.668-6.845-4.657-14.075-3.076-21.668c0.062-0.293,0.104-0.591,0.156-0.886
	C27.449,41.5,27.547,41.039,27.646,40.578z M57.781,23.637c-14.365-0.002-26.07,11.604-26.005,25.932
	C31.84,63.749,42.959,75.532,57.76,75.53c14.975-0.004,25.917-12.057,25.95-25.901C83.745,35.267,72.126,23.641,57.781,23.637z"/>
<path fill-rule="evenodd" clip-rule="evenodd" d="M51.389,90.844c0,1.939,0.034,3.88-0.01,5.818
	c-0.039,1.729-1.037,2.758-2.58,2.783c-1.603,0.025-2.699-0.983-2.736-2.716c-0.045-2.125,0.073-4.255,0.072-6.382
	c-0.001-1.884-0.04-3.767-0.115-5.648c-0.056-1.398,0.875-2.669,2.177-2.848c1.545-0.212,2.785,0.571,3.059,2.04
	c0.152,0.823,0.155,1.683,0.172,2.525c0.023,1.476,0.006,2.951,0.006,4.427C51.419,90.844,51.404,90.844,51.389,90.844z"/>
<path fill-rule="evenodd" clip-rule="evenodd" d="M75.202,94.948c0.007,1.724-0.77,2.728-1.982,3.025
	c-1.199,0.293-2.465-0.192-2.967-1.334c-1.409-3.192-2.738-6.419-4.102-9.634c-0.137-0.323-0.238-0.669-0.418-0.967
	c-0.849-1.414-0.625-2.924,0.581-3.784c1.177-0.839,2.941-0.588,3.906,0.596c0.286,0.353,0.569,0.776,0.658,1.206
	c0.633,3.067,2.24,5.731,3.45,8.561C74.712,93.511,75.014,94.439,75.202,94.948z"/>
<path fill-rule="evenodd" clip-rule="evenodd" d="M52.022,13.884c-0.097,0.629-0.124,1.183-0.273,1.7
	c-0.387,1.349-1.663,2.087-3.065,1.83c-1.296-0.238-2.182-1.456-2.102-2.821c0.027-0.452,0.018-0.933-0.105-1.364
	c-0.645-2.284-1.323-4.559-2.01-6.832c-0.188-0.625-0.427-1.237-0.678-1.84c-0.574-1.378-0.071-2.872,1.201-3.504
	c1.302-0.646,2.817-0.215,3.529,1.092c0.387,0.713,0.669,1.496,0.908,2.273c0.768,2.505,1.507,5.019,2.227,7.537
	C51.841,12.605,51.911,13.286,52.022,13.884z"/>
<path fill-rule="evenodd" clip-rule="evenodd" d="M24.178,56.438c1.876-0.008,2.999,0.871,3.158,2.194
	c0.189,1.579-0.559,2.704-2.158,3.065c-1.888,0.423-3.793,0.778-5.696,1.132c-1.246,0.231-2.405,0.61-3.489,1.315
	c-1.531,0.994-3.132,0.776-4.14-0.427c-1.276-1.523-0.563-3.797,1.352-4.316c0.132-0.035,0.286-0.028,0.396-0.095
	c2.642-1.637,5.703-1.749,8.621-2.379C22.99,56.763,23.748,56.547,24.178,56.438z"/>
<path fill-rule="evenodd" clip-rule="evenodd" d="M27.646,40.578c-0.099,0.461-0.197,0.923-0.295,1.384
	c-0.969,1.096-2.111,1.699-3.618,1.293c-0.603-0.162-1.203-0.362-1.817-0.451c-2.667-0.387-5.337-0.755-8.012-1.098
	c-1.417-0.181-2.401-1.296-2.353-2.758c0.046-1.407,1.104-2.59,2.501-2.481c2.494,0.195,4.976,0.558,7.46,0.871
	c0.811,0.103,1.609,0.299,2.419,0.398C25.734,37.957,27.19,38.604,27.646,40.578z"/>
<path fill-rule="evenodd" clip-rule="evenodd" d="M26.812,86.821c-1.905,0.015-3.202-1.764-2.454-3.562
	c0.385-0.931,1.03-1.807,1.732-2.537c1.376-1.438,2.884-2.747,4.319-4.128c0.329-0.316,0.644-0.675,0.864-1.071
	c0.653-1.175,1.683-1.596,2.944-1.52c1.096,0.066,1.927,0.62,2.333,1.658c0.453,1.161,0.173,2.228-0.699,3.082
	c-1.697,1.657-3.451,3.257-5.147,4.92c-0.597,0.584-1.134,1.247-1.625,1.926C28.507,86.381,27.795,86.829,26.812,86.821z"/>
<path fill-rule="evenodd" clip-rule="evenodd" d="M23.042,15.969c0.145-1.188,0.743-2.083,1.758-2.484
	c1.066-0.42,2.125-0.147,3.001,0.707c1.659,1.62,3.316,3.245,5.024,4.813c0.679,0.623,1.523,1.06,2.235,1.651
	c0.86,0.715,1.097,1.676,0.79,2.743c-0.301,1.046-1.037,1.716-2.096,1.819c-0.609,0.059-1.349-0.062-1.864-0.374
	c-3.158-1.921-5.784-4.468-8.163-7.269C23.368,17.151,23.264,16.51,23.042,15.969z"/>
<path fill-rule="evenodd" clip-rule="evenodd" d="M54.559,25.408c3.128,0.45,6.272,0.811,9.375,1.393
	c1.284,0.242,2.582,0.796,3.694,1.495c2.416,1.518,5.067,2.886,6.565,5.425c1.96,3.319,3.498,6.875,4.392,10.636
	c0.369,1.541,0.34,3.2,0.328,4.803c-0.02,3.108,0.022,6.262-1.113,9.214c-0.85,2.209-1.646,4.542-3.016,6.418
	c-2.294,3.146-5.435,5.354-9.353,6.19c-1.874,0.399-3.639-0.982-3.492-2.892c0.137-1.783,0.537-3.56,0.976-5.3
	c1.411-5.57,0.99-11.113-0.282-16.613c-0.683-2.948-1.677-5.822-2.481-8.744c-0.351-1.271-1.041-2.174-2.249-2.733
	c-1.136-0.528-2.232-1.143-3.352-1.712c-0.854-0.436-1.708-0.733-2.725-0.656c-1.007,0.078-1.771-0.529-2.191-1.445
	c-0.508-1.108-0.364-2.186,0.344-3.175c0.302-0.419,0.581-0.897,0.983-1.191c0.528-0.385,1.145-0.718,1.771-0.88
	c0.564-0.146,1.195-0.031,1.795-0.031C54.539,25.543,54.549,25.476,54.559,25.408z"/>
<path fill-rule="evenodd" clip-rule="evenodd" d="M42.514,61.036c0.09-1.224,0.14-2.452,0.289-3.67
	c0.082-0.671-0.139-0.919-0.775-0.888c-0.353,0.017-0.712-0.007-1.059,0.053c-1.063,0.178-1.954-0.111-2.631-0.949
	c-0.683-0.848-0.76-1.829-0.327-2.78c0.402-0.887,0.83-1.827,1.489-2.509c0.589-0.609,1.47-1.012,2.293-1.303
	c1.968-0.699,1.98-0.653,2.084-2.77c0.022-0.462,0.066-0.927,0.147-1.382c0.205-1.148,0.853-1.968,1.987-2.267
	c1.15-0.303,2.209-0.003,2.939,0.955c0.693,0.906,1.313,1.879,1.863,2.878c0.311,0.562,0.613,0.709,1.225,0.558
	c0.685-0.169,1.397-0.232,2.104-0.295c1.217-0.109,2.283,0.488,2.771,1.506c0.513,1.067,0.297,2.267-0.6,3.159
	c-0.465,0.462-0.979,0.872-1.455,1.319c-0.732,0.688-0.78,1.254-0.209,2.074c0.764,1.098,1.581,2.164,2.265,3.311
	c0.914,1.537,0.765,2.997-0.445,3.909c-0.549,0.414-1.355,0.756-2.011,0.702c-1.76-0.146-3.505-0.487-5.244-0.82
	c-1.096-0.211-1.142-0.246-1.447,0.884c-0.29,1.071-0.931,1.779-2.015,2.042c-1.591,0.388-3.118-0.757-3.212-2.404
	c-0.025-0.436-0.004-0.874-0.004-1.312C42.53,61.038,42.522,61.037,42.514,61.036z"/>
</svg>
