<?xml version="1.0" encoding="utf-8"?>
<!-- Generator: Adobe Illustrator 16.0.0, SVG Export Plug-In . SVG Version: 6.00 Build 0)  -->
<!DOCTYPE svg PUBLIC "-//W3C//DTD SVG 1.1//EN" "http://www.w3.org/Graphics/SVG/1.1/DTD/svg11.dtd">
<svg version="1.1" id="圖層_1" xmlns="http://www.w3.org/2000/svg" xmlns:xlink="http://www.w3.org/1999/xlink" x="0px" y="0px"
	 width="100px" height="100px" viewBox="0 0 100 100" enable-background="new 0 0 100 100" xml:space="preserve">
<g>
	<path fill-rule="evenodd" clip-rule="evenodd" d="M32.889,50.844c1.081-3.298,1.662-6.607,2.322-9.9
		c0.533-2.655,1.53-5.2,1.998-7.861c0.69-3.92,2.382-7.502,3.563-11.254c0.225-0.713,0.608-1.363,1.007-1.996
		c1.224-1.944,3.278-2.249,4.993-0.705c1.202,1.083,1.957,2.489,2.632,3.932c0.792,1.691,1.474,3.433,1.994,5.226
		c0.666,2.298,1.57,4.481,2.738,6.571c1.652,2.954,3.06,6.03,4.394,9.141c0.821,1.915,2.029,3.622,3.061,5.424
		c0.304,0.53,0.771,0.456,1.069-0.176c0.82-1.732,1.785-3.382,2.793-5.012c1.242-2.007,2.666-3.897,4.078-5.771
		c1.393-1.848,3.102-3.482,5.007-4.858c0.533-0.384,1.112-0.687,1.732-0.905c1.488-0.527,2.795-0.105,3.661,1.215
		c0.617,0.941,1.041,1.986,1.429,3.035c0.713,1.933,1.603,3.767,2.657,5.541c2.395,4.027,3.752,8.475,5.04,12.94
		c0.41,1.418,0.87,2.822,1.696,4.051c1.658,2.461,2.604,5.189,3.235,8.063c0.552,2.51,1.541,4.891,2.289,7.342
		c0.098,0.32,0.347,0.547,0.563,0.795c0.84,0.969,0.829,2.158-0.046,3.096c-0.207,0.221-0.286,0.43-0.299,0.732
		c-0.048,1.129-0.73,1.912-1.834,2.18c-1.235,0.301-2.504,0.256-3.759,0.361c-1.581,0.133-3.156,0.328-4.717,0.627
		c-1.358,0.262-2.698,0.057-4.034-0.154c-0.767-0.121-1.53-0.18-2.302-0.123c-2.342,0.176-4.646-0.342-6.983-0.369
		c-1.575-0.016-3.117,0.205-4.676,0.287c-0.512,0.027-1.031,0.078-1.536,0.02c-0.592-0.066-1.184-0.072-1.738,0.09
		c-1.827,0.531-3.679,0.643-5.547,0.381c-1.181-0.166-2.328-0.047-3.474,0.188c-0.58,0.117-1.16,0.145-1.742,0.113
		c-4.49-0.236-8.952,0.174-13.421,0.494c-2.386,0.172-4.778,0.432-7.182-0.137c-1.099-0.26-2.275,0.131-3.387,0.367
		c-2.879,0.613-5.817,0.84-8.705,1.379c-2.212,0.414-4.455,0.439-6.683,0.652c-0.607,0.059-1.234,0.01-1.805-0.17
		c-1.659-0.52-3.334-0.539-5.043-0.391c-0.997,0.086-2.007,0.072-3.008,0.025c-0.898-0.039-1.609-0.459-1.98-1.326
		c-0.377-0.881-0.251-1.711,0.392-2.402c0.321-0.344,0.477-0.723,0.608-1.15c1.111-3.625,1.613-7.377,2.305-11.09
		c1.105-5.93,2.917-11.668,4.617-17.439c1.107-3.756,2.009-7.572,3.176-11.313c0.188-0.604,0.404-1.194,0.747-1.729
		c0.996-1.552,2.71-2.132,4.232-1.11c2.507,1.684,5.165,3.222,7.034,5.708c0.592,0.787,1.255,1.507,2.003,2.149
		c1.46,1.255,2.667,2.745,3.913,4.201C32.252,50.159,32.556,50.477,32.889,50.844z M30.325,79.27
		c1.427-0.211,2.791-0.49,4.112-0.188c1.61,0.371,3.208,0.264,4.806,0.154c3.887-0.262,7.767-0.598,11.667-0.658
		c1.698-0.025,3.403,0.248,5.099-0.113c1.362-0.287,2.739-0.193,4.115-0.053c0.954,0.1,1.924,0.158,2.854-0.113
		c1.275-0.375,2.569-0.451,3.881-0.402c0.772,0.029,1.536-0.07,2.304-0.131c0.404-0.031,0.471-0.146,0.303-0.518
		c-0.427-0.938-0.66-1.939-0.915-2.934c-0.435-1.697-0.901-3.406-1.864-4.881c-2.592-3.963-4.39-8.27-5.747-12.779
		c-0.082-0.271-0.187-0.52-0.36-0.75c-2.27-3.037-4.172-6.301-5.919-9.657c-1.055-2.027-1.783-4.204-2.857-6.229
		c-1.898-3.582-3.875-7.125-4.911-11.104c-0.449-1.723-1.154-3.388-2.101-5.056c-0.355,1.043-0.639,2-1.003,2.926
		c-0.681,1.737-1.411,3.46-1.779,5.297c-0.432,2.151-0.978,4.271-1.587,6.378c-1.213,4.192-1.676,8.557-2.941,12.739
		c-0.336,1.111-0.737,2.277-0.705,3.408c0.037,1.281-0.198,2.451-0.572,3.627c-1.529,4.795-3.132,9.568-4.14,14.514
		C31.621,74.918,30.901,77.018,30.325,79.27z M92.466,77.5c-1.116-3.455-2.383-6.76-3.136-10.236
		c-0.351-1.617-0.922-3.191-1.853-4.584c-1.179-1.764-2.022-3.672-2.618-5.701c-0.966-3.287-1.889-6.595-3.383-9.697
		c-1.494-3.106-3.483-5.973-4.512-9.305c-0.139-0.449-0.329-0.305-0.584-0.086c-1.649,1.415-3.203,2.914-4.344,4.792
		c-0.278,0.458-0.59,0.898-0.923,1.319c-2.572,3.253-4.516,6.849-5.893,10.756c-0.075,0.211-0.075,0.393-0.01,0.604
		c1.126,3.619,2.379,7.188,4.474,10.379c1.582,2.416,2.614,5.045,3.271,7.836c0.318,1.355,0.822,2.623,1.64,3.762
		c0.13,0.18,0.227,0.324,0.479,0.324c1.628,0.006,3.225,0.496,4.876,0.266c0.732-0.102,1.487-0.01,2.234,0.09
		c0.969,0.127,1.936,0.439,2.918,0.289C87.548,77.932,89.994,77.59,92.466,77.5z M14.763,81.402
		c3.503-0.141,6.951-0.742,10.409-1.26c0.308-0.045,0.348-0.252,0.408-0.484c0.802-3.113,1.77-6.182,2.445-9.334
		c0.929-4.334,2.375-8.527,3.674-12.76c0.066-0.217,0.24-0.42,0.118-0.668c-0.293-0.592-0.302-1.359-1.126-1.613
		c-0.227-0.072-0.428-0.371-0.546-0.615c-0.209-0.428-0.531-0.756-0.83-1.115c-1.81-2.174-3.867-4.115-5.784-6.184
		c-1.466-1.584-2.852-3.195-4.735-4.311c-0.726-0.43-0.702-0.495-0.936,0.339c-1.131,4.04-2.219,8.093-3.393,12.123
		c-0.88,3.021-1.854,6.018-2.625,9.068c-1.319,5.225-1.891,10.605-3.272,15.818c-0.146,0.555,0.177,0.469,0.471,0.402
		c1.224-0.275,2.412-0.086,3.594,0.236C13.33,81.234,14.026,81.432,14.763,81.402z"/>
</g>
</svg>
