<?xml version="1.0" encoding="utf-8"?>
<!-- Generator: Adobe Illustrator 16.0.0, SVG Export Plug-In . SVG Version: 6.00 Build 0)  -->
<!DOCTYPE svg PUBLIC "-//W3C//DTD SVG 1.1//EN" "http://www.w3.org/Graphics/SVG/1.1/DTD/svg11.dtd">
<svg version="1.1" id="圖層_1" xmlns="http://www.w3.org/2000/svg" xmlns:xlink="http://www.w3.org/1999/xlink" x="0px" y="0px"
	 width="100px" height="100px" viewBox="0 0 100 100" enable-background="new 0 0 100 100" xml:space="preserve">
<g>
	<path fill-rule="evenodd" clip-rule="evenodd" d="M54.666,7.025c-0.015,2.767,0.221,5.501,1.42,8.058
		c0.563,1.202,1.48,2.122,2.39,3.048c0.89,0.909,1.78,1.819,2.699,2.696c1.305,1.244,2.417,2.63,3.218,4.246
		c1.083,2.182,2.763,3.881,4.534,5.463c2.238,1.999,3.975,4.343,5.317,6.994c1.048,2.065,2.347,3.939,3.886,5.667
		c2.056,2.307,3.573,4.953,4.639,7.843c0.545,1.478,1.193,2.896,1.984,4.249c1.869,3.192,2.275,6.636,1.948,10.253
		c-0.203,2.235-0.317,4.492-0.822,6.672c-0.938,4.065-2.506,7.924-4.291,11.688c-0.581,1.226-1.407,2.306-2.398,3.246
		c-1.033,0.981-2.234,1.703-3.54,2.252c-2.181,0.917-4.203,2.081-6.037,3.593c-2.915,2.403-6.202,4.117-9.872,5.073
		c-0.893,0.233-1.809,0.388-2.719,0.407c-3.053,0.065-6.096,0.26-9.141,0.478c-4.078,0.294-7.985-0.788-11.844-1.979
		c-1.551-0.479-3.15-0.74-4.717-1.12c-4.061-0.983-7.856-2.584-10.882-5.609c-1.209-1.211-1.996-2.694-2.491-4.315
		c-1.016-3.33-2.049-6.658-2.952-10.02c-1.202-4.471-0.809-8.892,0.714-13.232c2.053-5.845,4.689-11.441,7.341-17.028
		c0.831-1.749,1.973-3.299,3.318-4.682c2.331-2.394,4.328-5.027,6.147-7.832c2.028-3.128,4.064-6.259,6.403-9.177
		c1.197-1.494,1.897-3.261,2.587-5.025c1.446-3.697,3.017-7.345,4.374-11.077c0.149-0.409,0.223-0.791,0.161-1.247
		c-0.223-1.654,0.947-3.124,2.6-3.315c0.544-0.063,1.009-0.219,1.482-0.527c0.952-0.624,2.006-0.625,3.005-0.092
		c1.007,0.537,1.548,1.401,1.541,2.57C54.664,5.836,54.666,6.431,54.666,7.025z M21.164,75.111c-0.03-0.03-0.059-0.059-0.089-0.088
		c-0.002,0.023-0.005,0.046-0.006,0.068c0.035,0,0.07,0.001,0.106,0.002c-0.014,0.101-0.061,0.213-0.034,0.301
		c0.931,3.077,1.7,6.202,2.774,9.234c0.238,0.673,0.664,1.229,1.195,1.712c1.997,1.816,4.433,2.889,6.975,3.465
		c2.556,0.58,5.084,1.226,7.604,1.935c2.685,0.756,5.406,1.441,8.221,1.18c2.504-0.233,5-0.467,7.52-0.411
		c1.383,0.03,2.736-0.215,4.057-0.673c2.011-0.7,3.909-1.627,5.552-2.97c2.639-2.155,5.493-3.909,8.638-5.229
		c1.942-0.815,2.71-2.604,3.314-4.465c-0.411,0.32-0.758,0.688-1.102,1.061c-1.39,1.51-3.074,1.908-5.021,1.351
		c-0.779-0.223-1.563-0.431-2.342-0.647c-3.292-0.918-6.255-2.528-9.059-4.426c-1.345-0.908-1.284-0.998-1.919,0.469
		c-1.29,2.985-3.445,4.092-6.533,3.107c-2.624-0.836-5.241-1.673-7.905-2.371c-0.634-0.165-0.806-0.028-1.036,0.512
		c-1.335,3.14-3.644,4.312-6.906,3.511c-1.816-0.446-3.549-1.118-5.2-2.015C27.057,78.142,24.405,76.062,21.164,75.111z
		 M49.482,15.272c-0.608,1.529-1.219,3.058-1.824,4.589c-1.053,2.665-2.037,5.375-3.844,7.648c-2.006,2.524-3.756,5.226-5.553,7.894
		c-1.979,2.938-3.844,5.952-6.345,8.501c-1.174,1.197-2.35,2.403-3.155,3.898c-1.271,2.355-2.244,4.854-3.428,7.252
		c-0.178,0.362-0.103,0.505,0.281,0.628c0.779,0.249,1.392,0.75,1.711,1.51c0.195,0.464,0.516,0.597,0.958,0.729
		c2.026,0.605,4.205,0.41,6.187,1.22c0.363,0.148,0.551-0.13,0.767-0.316c0.941-0.823,2.023-1.306,3.265-1.5
		c1.327-0.207,2.579,0.098,3.833,0.434c0.294,0.079,0.543,0.209,0.727-0.194c1.09-2.39,3.248-2.93,5.822-2.48
		c2.226,0.387,4.271,1.339,6.389,2.063c1.305,0.445,1.32,0.476,2.076-0.672c0.99-1.5,2.265-2.532,4.129-2.656
		c1.063-0.072,2.085,0.118,3.111,0.424c2.749,0.819,5.354,2.01,8.019,3.044c0.482,0.187,0.85,0.136,1.271-0.17
		c1.03-0.742,2.006-1.576,3.166-2.112c0.509-0.236,0.587-0.481,0.401-0.987c-0.899-2.457-2.057-4.769-3.804-6.739
		c-1.876-2.115-3.496-4.399-4.757-6.936c-1.071-2.156-2.546-3.982-4.337-5.607c-1.8-1.633-3.588-3.338-4.726-5.526
		c-1.132-2.176-2.686-3.976-4.45-5.63C52.868,21.229,50.602,18.711,49.482,15.272z M22.659,61.382
		c-1.208,3.075-2.38,5.982-2.287,9.359c1.262-1.358,2.613-1.436,4.111-0.852c1.641,0.639,3.215,1.398,4.714,2.328
		c2.133,1.322,4.227,2.726,6.674,3.452c0.489,0.146,0.73,0.096,0.894-0.426c0.266-0.85,0.585-1.687,1.023-2.466
		c0.581-1.031,1.438-1.648,2.631-1.807c0.831-0.11,1.638,0.026,2.387,0.309c2.883,1.087,5.993,1.422,8.818,2.684
		c0.482,0.213,0.65,0.017,0.807-0.413c0.379-1.04,0.789-2.078,1.455-2.975c1.043-1.406,2.438-2.002,4.18-1.709
		c1.659,0.28,2.97,1.232,4.274,2.21c2.75,2.062,5.758,3.589,9.125,4.38c0.39,0.093,0.585,0.011,0.815-0.272
		c0.792-0.975,1.336-2.093,1.921-3.189c0.247-0.461,0.319-0.928,0.378-1.45c0.189-1.66,1.041-3.016,2.268-4.124
		c0.364-0.328,0.861-0.417,1.361-0.456c0.839-0.064,1.586,0.181,2.333,0.733c0.15-1.94,0.385-3.758,0.058-5.583
		c-0.189-1.053-0.266-1.102-1.186-0.5c-1.04,0.682-2.041,1.421-3.072,2.115c-1.23,0.832-2.574,1.047-4.026,0.731
		c-0.689-0.147-1.362-0.338-2.023-0.578c-2.359-0.853-4.606-1.993-7.019-2.72c-0.674-0.203-1.034-0.144-1.463,0.456
		c-1.371,1.917-3.086,3.266-5.646,2.96c-0.972-0.117-1.908-0.366-2.826-0.696c-1.473-0.528-2.955-1.03-4.418-1.587
		c-0.561-0.213-0.834-0.128-1.115,0.446c-0.995,2.032-2.719,2.844-4.954,2.385c-0.791-0.161-1.585-0.344-2.347-0.608
		c-0.772-0.266-1.351-0.183-1.961,0.421c-1.274,1.262-2.858,1.843-4.605,1.323c-1.667-0.496-3.363-0.738-5.057-1.061
		C26.64,63.777,24.287,63.52,22.659,61.382z M77.161,78.932c-0.011-0.017-0.026-0.036-0.042-0.057
		c-0.018,0.018-0.049,0.034-0.052,0.053c-0.001,0.021,0.027,0.04,0.043,0.061C77.128,78.971,77.144,78.95,77.161,78.932z"/>
	<path fill-rule="evenodd" clip-rule="evenodd" d="M-40.944,165.92c-0.219-0.005-0.438-0.01-0.657-0.016
		c0.014-0.137,0.027-0.274,0.041-0.411c0.182,0.178,0.363,0.356,0.545,0.534L-40.944,165.92z"/>
	<path fill-rule="evenodd" clip-rule="evenodd" d="M303.799,189.555c-0.108,0.12-0.213,0.237-0.318,0.354
		c-0.095-0.125-0.27-0.257-0.261-0.374c0.01-0.118,0.204-0.221,0.316-0.33C303.631,189.33,303.725,189.456,303.799,189.555z"/>
</g>
</svg>
