<?xml version="1.0" encoding="utf-8"?>
<!-- Generator: Adobe Illustrator 16.0.0, SVG Export Plug-In . SVG Version: 6.00 Build 0)  -->
<!DOCTYPE svg PUBLIC "-//W3C//DTD SVG 1.1//EN" "http://www.w3.org/Graphics/SVG/1.1/DTD/svg11.dtd">
<svg version="1.1" id="圖層_1" xmlns="http://www.w3.org/2000/svg" xmlns:xlink="http://www.w3.org/1999/xlink" x="0px" y="0px"
	 width="100px" height="100px" viewBox="0 0 100 100" enable-background="new 0 0 100 100" xml:space="preserve">
<g>
	<path fill-rule="evenodd" clip-rule="evenodd" d="M17.196,5.468c2.093,0.11,4.155,0.359,6.198,0.89
		c1.977,0.513,4.034,0.241,6.054,0.348c2.33,0.123,4.65,0.344,6.92,0.884c1.871,0.445,3.698,0.025,5.527-0.171
		c3.016-0.324,6.012-1.092,9.055-0.749c4.072,0.459,8.07-0.119,12.092-0.565c1.428-0.158,2.902-0.122,4.332,0.04
		c3.104,0.35,6.104-0.669,9.153-0.641c1.708,0.016,3.147-0.41,4.651-1.124c2.252-1.069,4.745-0.948,7.155-1.18
		c2.189-0.209,4.373-0.198,6.521,0.465c2.707,0.835,4.078,2.866,3.691,5.738c-0.56,4.161-0.467,8.311,0.008,12.467
		c0.09,0.79,0.071,1.599,0.036,2.397c-0.139,2.987-0.08,5.963,0.049,8.957c0.275,6.354,0.053,12.712-0.518,19.057
		c-0.286,3.188-0.207,6.389-0.044,9.586c0.17,3.303-0.035,6.597-0.229,9.896c-0.315,5.357-0.079,10.688,0.759,15.994
		c0.341,2.161,0.366,4.37-0.021,6.546c-0.391,2.189-1.983,3.619-4.125,3.526c-3.873-0.165-7.743-0.465-11.614-0.69
		c-0.738-0.042-1.482-0.005-2.224,0.012c-3.408,0.072-6.807-0.544-10.209-0.255c-2.786,0.235-5.561,0.616-8.35,0.847
		c-1.171,0.096-2.307,0.013-3.415-0.246c-2.898-0.676-5.81-0.739-8.744-0.394c-3.725,0.438-7.481,0.351-11.206,0.675
		c-4.807,0.417-9.568-0.307-14.354-0.288c-4.798,0.017-9.575-0.451-14.362-0.696c-0.404-0.021-0.7,0.109-1.033,0.301
		C7.727,97.794,6.491,97.789,5.313,97c-0.358-0.239-0.71-0.332-1.12-0.384c-1.435-0.188-2.456-0.974-2.875-2.415
		c-0.423-1.461-0.084-2.755,1.077-3.754c0.325-0.28,0.619-0.52,0.51-1.022c-0.734-3.408-0.508-6.869-0.268-10.287
		c0.311-4.434-0.286-8.825-0.225-13.229C2.5,59.75,1.433,53.654,1.747,47.48c0.207-4.088-0.182-8.202,0.142-12.297
		c0.439-5.547,0.71-11.103,0.895-16.664c0.013-0.382,0.019-0.77,0.086-1.144c0.2-1.11,0.096-2.146-0.228-3.253
		C1.677,10.824,3.34,7.714,6.515,6.93C10.019,6.065,13.541,5.197,17.196,5.468z M9.383,78.3c-0.029,3.296-0.391,6.598,0.208,9.883
		c0.293,1.607,0.328,1.676,1.979,1.745c2.293,0.098,4.585,0.172,6.874,0.39c4.302,0.41,8.628,0.116,12.944,0.428
		c5.693,0.413,11.393-0.094,17.075-0.556c3.543-0.289,7.078-0.589,10.577,0.259c2.504,0.607,4.981,0.116,7.438-0.166
		c2.387-0.273,4.756-0.58,7.157-0.434c5.861,0.358,11.745,0.225,17.597,0.773c0.586,0.056,0.805-0.138,0.733-0.739
		c-0.142-1.204-0.207-2.424-0.402-3.619c-0.762-4.652-0.698-9.335-0.51-14.023c0.124-3.06,0.44-6.123,0.26-9.177
		c-0.244-4.11-0.163-8.207,0.128-12.3c0.398-5.624,0.731-11.257,0.434-16.881c-0.172-3.233-0.226-6.445-0.055-9.671
		c0.029-0.552-0.01-1.111-0.055-1.663c-0.317-3.878-0.704-7.756-0.168-11.648c0.072-0.516-0.033-0.765-0.604-0.773
		c-2.233-0.031-4.441,0.253-6.651,0.524c-0.64,0.079-0.905,0.476-0.952,1.113c-0.076,1.074-0.152,2.151-0.285,3.218
		c-0.461,3.692-0.909,7.389-0.634,11.117c0.15,2.039,0.718,4.018,0.85,6.076c0.215,3.387-0.299,6.733-0.385,10.102
		c-0.067,2.603,0.109,5.236-0.439,7.801c-0.34,1.596-0.225,3.357-0.9,4.773c-0.965,2.018-1.536,4.145-2.292,6.218
		c-1.448,3.973-3.834,7.139-7.313,9.462c-3.334,2.227-7.167,2.996-10.877,4.11c-3.537,1.063-7.211,0.947-10.848,1.1
		c-1.955,0.08-3.948,0.38-5.861-0.03c-4.745-1.018-9.538-1.858-14.109-3.61c-1.972-0.757-3.704-1.87-5.082-3.486
		c-2.483-2.919-4.371-6.249-6.104-9.676c-0.58-1.148-0.919-2.385-1.101-3.665c-1.069-7.548-1.669-15.107-0.95-22.747
		c0.449-4.773,0.609-9.573,1.343-14.318c0.249-1.614,0.442-3.235,0.518-4.87c0.02-0.438-0.054-0.665-0.568-0.755
		c-2.623-0.461-5.166,0.06-7.714,0.579c-0.332,0.067-0.518,0.192-0.555,0.596c-0.174,1.937-0.52,3.868-0.558,5.805
		c-0.129,6.71-0.842,13.391-0.966,20.099c-0.078,4.204,0.016,8.41-0.027,12.616c-0.032,3.172,0.662,6.285,0.622,9.459
		c-0.024,1.943-0.091,3.901,0.068,5.835C9.516,71.146,9.694,74.716,9.383,78.3z M28.713,13.607
		c-0.837,0.029-1.646,0.082-2.456,0.076c-0.436-0.003-0.589,0.156-0.609,0.599c-0.035,0.798-0.089,1.599-0.197,2.39
		c-0.555,4.063-1.083,8.128-1.304,12.228c-0.028,0.51-0.044,0.856,0.624,1.013c2.322,0.543,3.318,2.332,2.626,4.691
		c-0.21,0.716,0.015,1.081,0.594,1.284c0.826,0.29,1.648,0.55,2.556,0.557c2.126,0.017,4.256,0.084,6.377,0.237
		c0.672,0.049,1.014-0.09,1.372-0.68c1.312-2.163,3.155-2.983,5.546-2.392c3.603,0.89,7.348,1.06,10.882,2.3
		c0.811,0.284,1.535,0.101,2.139-0.685c0.82-1.068,1.907-1.868,2.969-2.675c2.503-1.902,4.401-1.85,6.741,0.246
		c1.949,1.744,4.271,2.488,6.765,2.689c2.213,0.18,3.409-1.19,3.166-3.432c-0.011-0.104-0.041-0.205-0.055-0.308
		c-0.367-2.817-1.007-5.585-0.854-8.48c0.174-3.302,0.359-6.599,0.859-9.864c0.157-1.02-0.194-1.052-0.944-0.867
		c-2.784,0.687-5.607,0.727-8.453,0.612c-2.151-0.087-4.307-0.187-6.455,0.279c-1.785,0.387-3.62,0.524-5.44,0.414
		c-4.292-0.259-8.548-0.15-12.812,0.573c-2.518,0.428-5.095,0.667-7.646-0.01C32.734,13.878,30.694,13.876,28.713,13.607z
		 M25.365,56.265c1.645,2.757,3.02,5.506,5.069,7.796c0.434,0.486,0.944,0.904,1.547,1.155c4.497,1.879,9.24,2.925,13.996,3.562
		c3.23,0.434,6.596-0.093,9.895-0.315c3.71-0.249,7.182-1.593,10.634-2.871c2.379-0.882,4.198-2.628,5.479-4.905
		c0.136-0.243,0.561-0.614-0.116-0.744c-2.312-0.444-4.079-1.932-5.904-3.294c-0.68-0.508-1.343-0.834-2.228-0.724
		c-1.01,0.125-2.042,0.014-2.998-0.35c-0.754-0.285-1.083-0.126-1.426,0.647c-1.173,2.641-3.173,3.802-5.976,3.177
		c-3.567-0.793-7.023-1.953-10.497-3.061c-0.604-0.192-1.02-0.316-1.412,0.488c-0.537,1.104-1.559,1.668-2.775,1.866
		c-0.998,0.162-1.965,0.021-2.899-0.247C32.415,57.487,29.064,56.593,25.365,56.265z M23.552,41.42
		c0.011,2.333,0.251,4.506,0.438,6.683c0.04,0.465,0.329,0.585,0.732,0.702c3.54,1.024,7.292,1.013,10.767,2.338
		c0.326,0.124,0.461-0.023,0.633-0.297c1.679-2.673,2.938-3.128,5.858-2.156c3.494,1.165,6.993,2.307,10.527,3.34
		c0.854,0.248,1.175,0.06,1.486-0.736c0.794-2.033,2.191-3.328,4.418-3.395c0.947-0.027,1.858,0.243,2.77,0.508
		c0.804,0.234,1.594,0.708,2.45,0.529c1.998-0.415,3.728,0.172,5.339,1.333c1.133,0.815,2.266,1.631,3.419,2.414
		c0.316,0.215,0.697,0.577,1.1,0.232c0.769-0.657,1.585-1.244,1.93-2.333c0.823-2.604,0.603-5.292,0.732-7.953
		c0.025-0.475-0.352-0.301-0.59-0.27c-4.013,0.514-7.699-0.539-11.159-2.524c-1.634-0.936-1.594-1.009-2.887,0.484
		c-0.022,0.026-0.045,0.052-0.065,0.08c-1.72,2.38-4.163,2.913-6.779,2.535c-3.328-0.482-6.557-1.547-9.904-1.99
		c-0.84-0.111-1.38-0.117-1.916,0.733c-0.986,1.567-2.492,2.31-4.331,2.184c-2.355-0.163-4.697-0.568-7.064-0.458
		C28.688,43.531,26.1,42.953,23.552,41.42z"/>
</g>
</svg>
