<?xml version="1.0" encoding="utf-8"?>
<!-- Generator: Adobe Illustrator 16.0.0, SVG Export Plug-In . SVG Version: 6.00 Build 0)  -->
<!DOCTYPE svg PUBLIC "-//W3C//DTD SVG 1.1//EN" "http://www.w3.org/Graphics/SVG/1.1/DTD/svg11.dtd">
<svg version="1.1" id="圖層_1" xmlns="http://www.w3.org/2000/svg" xmlns:xlink="http://www.w3.org/1999/xlink" x="0px" y="0px"
	 width="100px" height="100px" viewBox="0 0 100 100" enable-background="new 0 0 100 100" xml:space="preserve">
<g>
	<path fill-rule="evenodd" clip-rule="evenodd" d="M14.932,76.531c-0.047-5.397,1.335-10.59,3.069-15.722
		c1.554-4.604,3.672-8.949,5.726-13.336c3.729-7.958,8.129-15.652,9.883-24.418c1.014-5.066,1.691-10.133,0.812-15.296
		c-0.101-0.59-0.271-1.104-0.587-1.616c-0.711-1.155-0.458-2.569,0.544-3.476c0.969-0.875,2.344-0.99,3.415-0.18
		c0.489,0.371,0.81,0.448,1.405,0.167c1.371-0.648,2.917-0.121,3.526,1.236c1.023,2.28,2.885,3.71,4.841,5.06
		c1.051,0.724,2.201,1.285,3.366,1.808c1.166,0.524,2.223,1.244,3.331,1.864c5.802,3.244,10.365,7.998,15.253,12.354
		c1.811,1.612,3.329,3.487,4.485,5.617c1.324,2.445,2.854,4.742,4.62,6.89c2.681,3.261,4.565,6.846,5.287,11.103
		c0.526,3.107,1.542,6.136,2.412,9.18c0.809,2.819,0.937,5.667,0.575,8.556c-0.482,3.866-0.824,7.76-1.498,11.594
		c-0.803,4.557-2.909,8.521-6.239,11.785c-0.259,0.253-0.541,0.51-0.858,0.673c-3.753,1.92-7.27,4.305-11.258,5.773
		c-1.228,0.452-2.4,1.046-3.61,1.555c-1.254,0.528-2.521,0.739-3.779,0.007c-1.52-0.891-2.035-2.476-1.487-4.607
		c0.534-2.078,1.256-4.099,1.532-6.252c0.704-5.458,0.734-10.806-1.587-15.977c-1.766-3.932-4.345-7.233-7.405-10.187
		c-1.31-1.264-3.109-0.745-3.663,0.986c-1.837,5.737-3.27,11.599-3.476,17.612c-0.13,3.76,0.193,7.564,0.189,11.351
		c0,1.612,0.442,3.046,1.295,4.438c1.259,2.054,0.529,4.192-1.502,4.803c-0.309,0.093-0.645,0.132-0.968,0.125
		c-4.16-0.084-8.173-0.882-12.012-2.494c-0.535-0.225-1.095-0.464-1.536-0.826c-2.616-2.136-5.591-3.827-7.865-6.389
		c-0.626-0.707-1.276-1.424-2.017-2.002c-2.611-2.034-3.608-4.848-4.005-7.976C14.989,79.081,14.863,77.85,14.932,76.531z
		 M40.299,10.195c0.138,3.162-0.022,6.083-0.393,9.007c-0.784,6.195-2.598,12.131-4.967,17.835
		c-1.779,4.285-4.027,8.394-6.078,12.577c-2.683,5.471-5.163,11.005-6.835,16.875c-1.319,4.628-2.063,9.31-1.206,14.13
		c0.239,1.339,0.817,2.42,1.846,3.359c2.197,2.009,4.303,4.094,6.637,5.976c2.226,1.793,4.577,3.039,7.301,3.728
		c1.837,0.467,1.926,0.494,1.697-1.341c-0.406-3.272,0.202-6.553-0.177-9.819c-0.125-1.086-0.21-2.181-0.212-3.271
		c-0.005-3.414,0.909-6.692,1.535-10.019c0.67-3.587,1.401-7.143,2.794-10.532c0.685-1.667,1.803-2.96,3.506-3.549
		c3.336-1.153,6.411-0.869,9.092,1.756c2.547,2.492,4.809,5.224,6.582,8.281c3.154,5.44,4.766,11.3,4.164,17.673
		c-0.257,2.705-0.412,5.421-0.968,8.087c0.48,0.123,0.789-0.121,1.119-0.234c2.406-0.808,4.374-2.476,6.691-3.447
		c5.059-2.123,6.808-6.491,7.681-11.388c0.474-2.649,0.643-5.35,1.023-8.021c0.47-3.275,0.582-6.507-0.415-9.732
		c-0.839-2.709-1.76-5.43-2.213-8.215c-0.568-3.489-2.097-6.399-4.287-9.052c-1.933-2.34-3.592-4.858-5.045-7.524
		c-1.039-1.904-2.461-3.514-4.14-4.902c-1.037-0.86-2.1-1.711-3.017-2.691c-4.329-4.611-9.548-7.948-15.142-10.774
		C44.497,13.764,42.389,12.177,40.299,10.195z"/>
</g>
</svg>
