<?xml version="1.0" encoding="utf-8"?>
<!-- Generator: Adobe Illustrator 16.0.0, SVG Export Plug-In . SVG Version: 6.00 Build 0)  -->
<!DOCTYPE svg PUBLIC "-//W3C//DTD SVG 1.1//EN" "http://www.w3.org/Graphics/SVG/1.1/DTD/svg11.dtd">
<svg version="1.1" id="圖層_1" xmlns="http://www.w3.org/2000/svg" xmlns:xlink="http://www.w3.org/1999/xlink" x="0px" y="0px"
	 width="100px" height="100px" viewBox="0 0 100 100" enable-background="new 0 0 100 100" xml:space="preserve">
<g>
	<path fill-rule="evenodd" clip-rule="evenodd" d="M40.468,67.941c-2.322-0.01-4.391,0.676-6.457,1.371
		c-1.297,0.438-2.622,0.705-3.998,0.758c-2.412,0.096-3.681-1.689-2.819-3.959c0.608-1.596,1.527-3.018,2.405-4.465
		c1.525-2.518,2.749-5.178,3.771-7.934c0.79-2.131,1.97-4.072,3.087-6.105c-1.26-0.373-2.462-0.176-3.653-0.075
		c-2.449,0.207-4.891,0.272-7.337-0.059c-2.802-0.38-3.841-2.653-2.277-5.083c1.98-3.078,3.98-6.143,5.973-9.213
		c6.468-9.973,12.935-19.948,19.408-29.917c0.897-1.381,2.435-1.656,3.564-0.682c0.328,0.283,0.507,0.669,0.725,1.05
		c0.948-1.196,1.936-1.53,3.009-1.049c1.112,0.498,1.416,1.417,1.287,2.881c-0.161,1.832-0.141,3.68-0.185,5.523
		c-0.096,3.993-0.086,7.991-0.471,11.973c-0.058,0.595,0.076,0.868,0.731,0.891c2.08,0.073,4.142,0.356,6.234-0.076
		c1.845-0.381,3.173,1.038,3.036,3.09c-0.186,2.797-0.907,5.49-1.666,8.171c-0.264,0.932-0.553,1.857-0.872,2.77
		c-0.187,0.535-0.014,0.683,0.51,0.735c1.445,0.142,2.817-0.302,4.223-0.479c1.889-0.237,3.769-0.602,5.686-0.315
		c0.79,0.118,1.547,0.349,2.111,0.949c0.274,0.292,0.54,0.267,0.893,0.219c0.948-0.13,1.736,0.203,2.264,1.02
		c0.505,0.784,0.466,1.589,0.038,2.41c-0.459,0.884-0.895,1.782-1.316,2.685c-0.348,0.742-0.671,1.507-1.214,2.12
		c-2.646,2.988-4.688,6.369-6.629,9.833c-1.374,2.455-3.454,4.354-5.409,6.338c-0.683,0.693-1.271,1.447-1.805,2.262
		c-2.04,3.109-4.517,5.906-6.458,9.096c-1.681,2.76-3.576,5.389-5.358,8.09c-1.411,2.137-3.064,4.064-5.008,5.723
		c-1.918,1.637-3.536,3.57-5.368,5.289c-0.484,0.455-0.994,0.891-1.534,1.277c-0.476,0.342-0.894,0.688-1.094,1.271
		c-0.083,0.242-0.299,0.457-0.5,0.633c-0.936,0.811-2.63,0.693-4.171-0.271c-0.915-0.572-1.335-1.586-0.979-2.779
		c0.649-2.174,1.533-4.285,2.049-6.486c1.136-4.844,3.09-9.43,4.339-14.23C39.682,71.465,40.052,69.721,40.468,67.941z
		 M39.231,89.244c1.013-1.201,1.947-2.146,2.951-3.018c2.204-1.91,4.244-3.965,5.822-6.445c1.232-1.939,2.471-3.877,3.777-5.766
		c2.201-3.184,4.371-6.385,6.665-9.508c1.892-2.578,3.953-4.953,6.155-7.242c0.862-0.896,1.631-1.887,2.223-2.977
		c1.862-3.441,3.9-6.754,6.521-9.688c0.466-0.523,1.157-1.261,0.852-1.879c-0.375-0.754-1.374-0.56-2.154-0.459
		c-2.157,0.279-4.306,0.669-6.47,0.838c-1.807,0.14-3.623-0.313-5.401,0.612c-0.95,0.495-2.169-0.15-2.699-0.973
		c-0.584-0.906-0.546-2.024,0.221-2.959c0.759-0.926,1.364-1.933,1.782-3.039c0.878-2.324,1.48-4.729,2.04-7.149
		c0.2-0.864-0.098-1.012-0.868-1.018c-2.149-0.014-4.295-0.148-6.421-0.486c-1.983-0.316-2.775-1.331-2.624-3.322
		c0.02-0.271,0.045-0.547,0.12-0.808c0.366-1.297,0.36-2.634,0.413-3.96c0.115-2.932,0.203-5.865,0.261-8.798
		c0.034-1.753,0.338-3.511-0.016-5.418c-8.092,12.48-16.106,24.839-24.148,37.242c0.504,0.153,0.863,0.126,1.226,0.122
		c2.655-0.04,5.301-0.584,7.964-0.103c0.777,0.14,1.542,0.028,2.321-0.168c0.961-0.242,1.879-0.023,2.534,0.808
		c0.638,0.809,0.71,1.712,0.336,2.656c-0.394,0.994-1.025,1.848-1.606,2.732c-1.363,2.079-2.584,4.235-3.473,6.561
		c-1.092,2.859-2.355,5.633-3.94,8.256c-0.143,0.238-0.424,0.455-0.286,0.875c2.756-1.146,5.702-1.314,8.599-1.744
		c0.536-0.08,1.065-0.217,1.521-0.551c1.126-0.824,2.382-0.82,3.209,0.004c0.855,0.85,0.917,2.102,0.059,3.213
		c-0.963,1.246-1.578,2.615-1.967,4.141c-0.628,2.463-1.04,4.98-1.867,7.391C41.528,81.102,40.115,84.967,39.231,89.244z"/>
</g>
</svg>
