<?xml version="1.0" encoding="utf-8"?>
<!-- Generator: Adobe Illustrator 16.0.0, SVG Export Plug-In . SVG Version: 6.00 Build 0)  -->
<!DOCTYPE svg PUBLIC "-//W3C//DTD SVG 1.1//EN" "http://www.w3.org/Graphics/SVG/1.1/DTD/svg11.dtd">
<svg version="1.1" id="圖層_1" xmlns="http://www.w3.org/2000/svg" xmlns:xlink="http://www.w3.org/1999/xlink" x="0px" y="0px"
	 width="100px" height="100px" viewBox="0 0 100 100" enable-background="new 0 0 100 100" xml:space="preserve">
<g>
	<path fill-rule="evenodd" clip-rule="evenodd" d="M87.793,70.646c2.366-4.982,3.406-10.098,2.195-15.516
		c-0.319-1.426-0.589-2.859-0.952-4.278c-0.483-1.879,0.489-3.497,2.277-3.992c1.747-0.484,3.381,0.468,3.964,2.344
		c2.973,9.553,1.906,18.647-2.967,27.377c-1.646,2.947-3.477,5.732-5.65,8.307c-1.136,1.344-2.497,1.973-4.284,2.01
		c-5.802,0.123-10.203-2.564-13.821-6.779c-1.497-1.744-1.896-4.018-2.354-6.201c-0.219-0.035-0.291,0.102-0.352,0.225
		c-1.881,3.818-4.736,6.957-7.231,10.346c-1.229,1.674-2.381,3.393-3.479,5.146c-0.972,1.551-2.31,2.613-4.026,3.199
		c-1.148,0.391-2.296,0.789-3.465,1.104c-2.972,0.797-5.877,1.768-8.606,3.205c-2.057,1.084-4.265,1.34-6.541,1.291
		c-3.602-0.076-7.258,0.193-10.771-0.67c-3.781-0.928-7.327-2.605-10.702-4.543c-1.959-1.125-3.214-3.023-4.315-4.963
		c-1.85-3.256-2.75-6.775-2.923-10.516C3.508,71.658,4.32,65.688,5.715,59.805c1.184-4.99,4.308-8.281,9.448-9.214
		c6.757-1.229,13.489-1.155,20.084,1.072c2.438,0.82,3.995,2.496,4.897,4.883c1.301,3.445,1.53,7.023,1.461,10.646
		c-0.03,1.605-0.082,3.211-0.185,4.814c-0.248,3.861-2.449,6.518-5.462,8.625c-0.74,0.518-1.635,0.697-2.555,0.658
		c-1.572-0.066-2.812-1.172-3.094-2.762c-0.247-1.395,0.605-2.875,1.957-3.473c1.676-0.736,2.655-2.025,2.732-3.861
		c0.141-3.352,0.276-6.693-0.223-10.045c-0.377-2.533-1.692-3.768-4.18-4.162c-4.618-0.736-9.221-0.941-13.844-0.156
		c-2.718,0.463-4.25,2.129-4.825,4.779c-1.185,5.461-1.995,10.955-1.627,16.568c0.156,2.391,0.829,4.629,1.967,6.727
		c0.982,1.811,2.293,3.246,4.325,3.936c2.46,0.832,4.655,2.434,7.279,2.76c3.476,0.432,6.984,0.385,10.483,0.309
		c0.378-0.008,0.786-0.133,1.125-0.309c3.987-2.064,8.265-3.328,12.555-4.547c0.95-0.27,1.621-0.77,2.123-1.635
		c1.945-3.344,4.459-6.291,6.731-9.404c3.71-5.088,6.852-10.441,7.857-16.797c0.15-0.949,0.354-1.904,0.684-2.803
		c2.181-5.962,2.774-12.311,4.52-18.37c1.091-3.781,2.211-7.54,2.438-11.48c0.214-3.715,0.86-7.368,1.301-11.05
		c0.129-1.075,0.067-2.121-0.821-3.055c-1.163-1.226-0.947-3.221,0.27-4.351c1.433-1.333,3.749-1.364,5.182-0.072
		c1.407,1.27,1.457,3.028,1.709,4.716c0.433,2.917-0.216,5.75-0.628,8.609c-0.538,3.743-0.67,7.532-1.269,11.274
		c-0.441,2.737-1.543,5.264-2.192,7.931c-0.902,3.71-1.46,7.492-2.354,11.199c-0.63,2.596-1.51,5.129-2.27,7.693
		c-0.088,0.299-0.282,0.676-0.062,0.914c0.262,0.287,0.583-0.059,0.868-0.145c6.599-1.93,13.471,1.072,15.396,9.084
		C87.624,69.752,87.702,70.201,87.793,70.646z M84.961,76.354c-2.847-0.223-4.307-1.803-3.82-4.035
		c0.556-2.568-1.646-6.117-4.863-6.193c-2.313-0.057-3.732,1.281-3.749,3.588c-0.005,0.785-0.057,1.574,0.005,2.355
		c0.114,1.43,0.29,2.92,1.163,4.064c1.629,2.129,3.888,3.438,6.449,4.174c0.612,0.174,1.444,0.42,1.936-0.125
		C83.125,79.027,84.104,77.799,84.961,76.354z"/>
	<path fill-rule="evenodd" clip-rule="evenodd" d="M69.139,12.946c0.21,8.806-2.747,16.898-7.387,24.455
		c-1.967,3.207-5.012,5.378-8.113,7.35c-1.818,1.156-4.061,1.273-6.204,1.427c-3.178,0.229-6.426,0.508-9.479-0.417
		c-6.565-1.994-9.971-4.868-11.141-12.639c-0.391-2.597-0.35-5.211,0.079-7.792c0.728-4.381,3.781-6.844,7.44-8.807
		c2.943-1.58,5.961-1.431,9.047-0.627c0.655,0.17,1.324,0.294,1.969,0.496c4.614,1.442,7.205,4.72,7.631,9.67
		c0.181,2.098,0.356,4.199,0.017,6.301c-0.343,2.132-1.826,3.605-3.711,3.671c-2.576,0.09-4.084-2.389-3.072-4.752
		c1.075-2.512,0.56-5.042-0.634-7.387c-0.444-0.87-1.522-1.145-2.457-1.392c-0.999-0.264-2.026-0.421-3.028-0.672
		c-1.175-0.295-2.167,0.167-3.166,0.662c-2.516,1.244-3.975,3.097-3.898,6.069c0.06,2.334,0.131,4.635,1.027,6.832
		c0.534,1.308,1.463,2.162,2.682,2.914c3.157,1.945,6.59,1.522,9.997,1.461c4.576-0.082,7.556-2.917,9.801-6.355
		c3.268-5.004,5.388-10.573,5.968-16.572c0.408-4.232,0.318-8.493-0.6-12.684c-0.423-1.934,0.485-3.555,2.342-4.044
		c1.74-0.459,3.441,0.525,3.921,2.408C69.022,5.866,69.115,9.296,69.139,12.946z"/>
</g>
</svg>
